<?xml version="1.0" encoding="UTF-8"?>
<svg id="Layer_1" data-name="Layer 1" xmlns="http://www.w3.org/2000/svg" viewBox="0 0 383.54 352.39">
  <path d="M62.96,60.32l-9.81-41.85c-1.23-1.05-27.48.74-32.33-.25-9.05-1.84-9.71-15.02-.76-17.64,12.88.67,27.66-1.42,40.31-.19,4.39.43,7.05,2.26,8.4,6.57l13.39,53.39,295.3.31c4.38,1.82,7,6.27,5.77,11.07l-32.21,131.73c-3.55,11.83-14.72,21.25-27.09,22.32l-222.4-.02c-21.17,2.5-21.25,31.13,0,33.67l251.53.06c7.01,1.08,9.54,10.09,4.93,15.1-.68.73-4.23,2.82-4.88,2.82h-13.1l8.25,5.61c27.07,22.51,12.83,67.3-22.06,69.29-36.27,2.06-55.34-40.39-30.73-66.66l11.6-8.24h-169.97l11.26,7.83c20.51,20.53,12.06,57.54-16.17,65.49-37.67,10.61-65.75-32.23-41.49-62.44l13.45-10.87c-42.2.37-50.55-57.24-9.9-68.67,75.63-2.2,151.67-.37,227.45-.93,6.29-.56,10.01-3.77,12.12-9.59l29.41-119.95H7.18C3.72,78.29-.03,72.42,0,68.92s3.73-8.6,7.18-8.6h55.78ZM116.69,292.58c-25.22,3.68-21.54,45.84,7.85,41.53,25.39-3.73,22.12-45.9-7.85-41.53ZM318.84,292.56c-24.76,4.23-20.47,46.13,8.63,41.56,25.81-4.05,21.05-46.63-8.63-41.56Z"/>
  <path d="M63.25,109.89l113.67-.17c10.71,1.29,10.62,16.68-1.51,17.99h-109.32c-10.4-.93-12.49-13.63-2.84-17.81Z"/>
  <path d="M11.86,157.58l108.38-.2c9.78.82,13.3,12.08,4.67,17.4l-114.01.58c-10.88-1.3-9.88-17.18.96-17.79Z"/>
</svg>